<svg xmlns="http://www.w3.org/2000/svg" id="Layer_1" data-name="Layer 1" version="1.1" viewBox="0 0 1200 1200">
  <defs>
    <style>
      .cls-1 {
        fill: #000;
      }

      .cls-1, .cls-2 {
        stroke-width: 0px;
      }

      .cls-2 {
        fill: #fff;
      }
    </style>
  </defs>
  <path fill="#fff" strokeWidth='0px' d="M75.3,466.9c0,2.3,5.5,436.2,5.5,436.2l97.7,4.7,28.9,27.4,125.9,19.6,28.9,33.6,318.2,7.8,14.9-14.1,9.4-13.3,39.9-37.5,10.2-10.2,28.9-55.5,3.1-24.2,9.4-14.1,8.6-8.6,36.7-125.9,3.9-10.2,9.4-11.7,25.8-68,5.5-43.8,205.6-10.9,7-10.9-1.6-8.6,10.2-11,1.6-83.7-3.9-4.7-9.4-10.9-447.2-39.9-11-36,7.8-14.1,13.3-15.6,1.6-109.5s-59.4,3.1-64.1.8c-4.7-2.4-39.1,10.9-39.1,10.9l-12.5,13.3-30.5,37.5-19.5,12.5s-68.8,32.1-71.9,31.3c-3.1-.8-13.3,7.8-13.3,7.8l-14.1,13.3-84.4,34.4-19.5,18.8-80.5,29.7-18.8,18.8s-101.6,21.1-103.2,18c-1.6-3.1-13.3,16.4-13.3,16.4Z"/>
  <g>
    <rect fill='#000' strokeWidth='0px' x="449.5" y="375.1" width="650.7" height="48.6"/>
    <rect fill='#000' strokeWidth='0px' x="649.3" y="525.2" width="450.2" height="50.2"/>
    <rect fill='#000' strokeWidth='0px' x="649.3" y="674.6" width="201.1" height="50.4"/>
    <rect fill='#000' strokeWidth='0px' x="598.4" y="824.7" width="201.1" height="50.4"/>
    <rect fill='#000' strokeWidth='0px' x="349.8" y="975.6" width="351.2" height="50.4"/>
    <polygon fill='#000' strokeWidth='0px' points="850.4 823.3 800.9 823.4 800.7 678.5 850.2 678.4 850.4 823.3"/>
    <polygon fill='#000' strokeWidth='0px' points="799.7 925.7 750.2 925.7 750 825.4 799.5 825.4 799.7 925.7"/>
    <polygon fill='#000' strokeWidth='0px' points="900.4 674.8 850.2 674.8 850 533 900.2 532.9 900.4 674.8"/>
    <rect fill='#000' strokeWidth='0px' x="1100.8" y="425" width="49.2" height="100.1"/>
    <rect fill='#000' strokeWidth='0px' x="700.5" y="926.1" width="49.3" height="48.5"/>
    <rect fill='#000' strokeWidth='0px' x="199.3" y="924.6" width="150.9" height="50"/>
    <rect fill='#000' strokeWidth='0px' x="199.3" y="374.2" width="100.1" height="50"/>
    <rect fill='#000' strokeWidth='0px' x="300.2" y="324.1" width="100.1" height="50"/>
    <rect fill='#000' strokeWidth='0px' x="400.2" y="274.1" width="100.1" height="50"/>
    <rect fill='#000' strokeWidth='0px' x="500.3" y="224.1" width="50.8" height="50"/>
    <rect fill='#000' strokeWidth='0px' x="598.8" y="324.1" width="50.8" height="50"/>
    <rect fill='#000' strokeWidth='0px' x="550.4" y="174" width="149.3" height="50"/>
    <rect fill='#000' strokeWidth='0px' x="50" y="876.1" width="149.3" height="48.5"/>
    <rect fill='#000' strokeWidth='0px' x="50" y="425.8" width="149.3" height="48.5"/>
    <rect fill='#000' strokeWidth='0px' x="50" y="425.8" width="48.5" height="498.8"/>
    <rect fill='#000' strokeWidth='0px' x="650.4" y="196.7" width="50" height="127.4"/>
  </g>
</svg>